<?xml version="1.0" encoding="utf-8"?>
<!-- Generator: Adobe Illustrator 28.2.0, SVG Export Plug-In . SVG Version: 6.00 Build 0)  -->
<svg version="1.1" id="Capa_1" xmlns="http://www.w3.org/2000/svg" xmlns:xlink="http://www.w3.org/1999/xlink" x="0px" y="0px"
	 viewBox="0 0 792 612" style="enable-background:new 0 0 792 612;" xml:space="preserve">
<style type="text/css">
	.st0{fill:none;stroke:#006633;stroke-width:7;stroke-miterlimit:10;}
	.st1{fill:none;stroke:#BE1622;stroke-width:7;stroke-miterlimit:10;}
	.st2{fill:#006633;}
	.st3{fill:#BE1622;}
	.st4{fill:none;stroke:#BE1622;stroke-width:4;stroke-miterlimit:10;}
</style>
<g>
	<g>
		<path class="st0" d="M122.87,142.29v-24.66h62.98c0.05,0.8,0.09,1.69,0.12,2.65c0.03,0.96,0.04,2.38,0.04,4.26
			c0,20.24-5.34,35.95-16.03,47.12c-10.68,11.17-25.72,16.75-45.11,16.75c-9.53,0-18.01-1.43-25.43-4.3
			c-7.42-2.86-14.05-7.24-19.88-13.13c-5.57-5.62-9.89-12.28-12.97-19.96c-3.08-7.68-4.62-15.73-4.62-24.14
			c0-8.78,1.5-16.86,4.5-24.22c3-7.36,7.47-13.99,13.42-19.88c5.89-5.73,12.65-10.07,20.28-13.01c7.63-2.94,15.87-4.42,24.7-4.42
			c11.51,0,21.7,2.28,30.57,6.83c8.86,4.55,16.32,11.33,22.37,20.32l-27.8,13.34c-3.32-4.55-7.06-7.94-11.21-10.16
			c-4.15-2.22-8.8-3.33-13.94-3.33c-9.59,0-17.14,3.2-22.65,9.6c-5.52,6.4-8.27,15.14-8.27,26.23c0,11.19,2.76,20,8.27,26.43
			c5.52,6.43,13.07,9.64,22.65,9.64c8.14,0,14.93-1.99,20.36-5.98c5.44-3.99,8.61-9.31,9.52-15.95H122.87z"/>
		<path class="st0" d="M326.36,127.03c0,8.46-1.55,16.39-4.66,23.78c-3.11,7.39-7.63,14.01-13.58,19.84
			c-6,5.78-12.85,10.24-20.57,13.38c-7.71,3.13-15.72,4.7-24.02,4.7c-8.41,0-16.46-1.57-24.14-4.7
			c-7.69-3.13-14.45-7.59-20.28-13.38c-6.05-5.84-10.64-12.48-13.78-19.92c-3.13-7.44-4.7-15.34-4.7-23.7
			c0-8.41,1.57-16.32,4.7-23.74c3.13-7.42,7.72-14.04,13.78-19.88c5.84-5.78,12.6-10.24,20.28-13.38c7.68-3.13,15.73-4.7,24.14-4.7
			c8.35,0,16.4,1.57,24.14,4.7c7.74,3.13,14.55,7.59,20.45,13.38c5.89,5.78,10.4,12.4,13.54,19.84
			C324.79,110.69,326.36,118.62,326.36,127.03z M263.54,161.57c8.89,0,16.24-3.27,22.05-9.8c5.81-6.53,8.72-14.78,8.72-24.74
			c0-9.85-2.95-18.08-8.84-24.66c-5.89-6.59-13.2-9.88-21.93-9.88c-8.89,0-16.24,3.28-22.05,9.84c-5.81,6.56-8.72,14.8-8.72,24.7
			c0,10.07,2.86,18.34,8.6,24.82C247.1,158.33,254.49,161.57,263.54,161.57z"/>
		<path class="st0" d="M346.44,185.59V67.98h24.5c18.26,0,31.18,0.86,38.76,2.57c7.58,1.71,14.23,4.58,19.96,8.6
			c7.44,5.2,13.09,11.85,16.95,19.96c3.86,8.11,5.78,17.37,5.78,27.76c0,10.39-1.93,19.64-5.78,27.76
			c-3.86,8.11-9.51,14.77-16.95,19.96c-5.68,3.96-12.16,6.79-19.44,8.48c-7.28,1.69-18.58,2.53-33.9,2.53h-5.38H346.44z
			 M378.18,159.24h5.38c12.58,0,21.77-2.58,27.55-7.75c5.78-5.17,8.68-13.38,8.68-24.62s-2.89-19.49-8.68-24.74
			c-5.78-5.25-14.97-7.87-27.55-7.87h-5.38V159.24z"/>
		<path class="st1" d="M472.01,172.42c0-4.55,1.54-8.41,4.62-11.57c3.08-3.16,6.9-4.74,11.45-4.74c4.61,0,8.48,1.57,11.61,4.7
			c3.13,3.13,4.7,7,4.7,11.61c0,4.55-1.58,8.41-4.74,11.57c-3.16,3.16-7.02,4.74-11.57,4.74c-4.5,0-8.3-1.58-11.41-4.74
			C473.56,180.82,472.01,176.97,472.01,172.42z M473.29,146.47V62.52h29.8v83.95H473.29z"/>
	</g>
</g>
<g id="_x35_IoIU9_00000102506576253598751470000010762990136423386755_">
	<g>
		<path class="st2" d="M689.58,465.37c6.2,4.08,9.81,9.74,10.48,17.13c0.71,7.89-1.65,14.87-6.54,21.06
			c-3.81,4.83-8.41,8.9-12.61,13.35c-1.96,2.08-3.76,4.35-5.45,6.66c-2.08,2.84-2.9,6.28-4.12,9.52c-2.71,7.2-5.37,14.42-8.12,21.81
			c-1.35-1.01-2.63-1.91-3.85-2.89c-8.08-6.44-15.35-13.68-21.38-22.11c-4.61-6.45-7.76-13.57-10.07-21.12
			c-3.45-11.3-5.57-22.85-6.7-34.6c-0.13-1.35-0.21-2.7-0.3-4.05c-0.01-0.22,0.05-0.44,0.11-0.99c2,1.26,3.92,2.29,5.64,3.59
			c9.83,7.38,15.19,17.33,16.48,29.47c0.37,3.44,0.3,6.93,0.43,10.4c0.13,3.59,0.58,7.09,2.42,10.31c1.48,2.59,3.52,4.4,6.28,5.5
			c1.13,0.45,2.2,1.06,3.32,1.55c0.95,0.42,1.2,1.12,1.24,2.12c0.12,2.84,0.18,5.69,0.61,8.49c0.7,4.55,2.42,8.77,4.96,12.66
			c-0.15-0.46-0.3-0.92-0.46-1.38c-0.16-0.47-0.34-0.93-0.51-1.4c-2.23-6.38-3.67-12.91-3.53-19.72c0.12-5.92,2.04-11.2,5.97-15.6
			c3.3-3.69,6.83-7.19,10.38-10.64c4.04-3.91,8.31-7.57,11.91-11.93c3.31-4,4.64-8.69,5.05-13.73
			C691.6,474.26,691,469.77,689.58,465.37z"/>
		<path class="st3" d="M680.08,384.34c0,1.77-0.06,3.54,0.01,5.3c0.13,3.12,1.08,6.04,2.48,8.81c1.47,2.92,3.03,5.8,4.58,8.68
			c3.06,5.69,4.99,11.7,5.38,18.18c0.28,4.66,0.02,9.26-1.37,13.74c-2.26,7.26-7.04,12.12-14.15,14.72
			c-4.35,1.59-8.84,2.45-13.47,2.61c-1.69,0.06-2.85-0.68-3.69-2.04c-1.28-2.06-1.85-4.38-2.23-6.73
			c-1.37-8.47-0.74-16.77,1.94-24.96c2.94-8.99,6.24-17.83,10.39-26.33c2.13-4.36,4.93-8.21,8.88-11.14
			C679.27,384.85,679.74,384.57,680.08,384.34z"/>
		<path class="st3" d="M644.31,384.16c4.23,3.28,6.13,7.94,7.92,12.63c2.81,7.37,4.74,14.98,6.36,22.69c0.1,0.45,0.04,1-0.13,1.43
			c-2.27,5.89-3.64,11.95-3.42,18.3c0.16,4.4,0.63,8.78,2.39,12.88c0.59,1.37,1.49,2.6,2.28,3.94c-4.07-0.23-8.06-1.01-11.94-2.34
			c-3.24-1.12-6.28-2.61-8.82-4.98c-3.44-3.2-5.43-7.23-6.39-11.76c-2.03-9.55-0.8-18.75,3.44-27.51c1.7-3.51,3.68-6.88,5.44-10.35
			c2.02-3.98,3.15-8.2,3.03-12.7C644.46,385.67,644.37,384.95,644.31,384.16z"/>
		<path class="st3" d="M659.71,418.1c-1.02-4.45-1.88-8.87-3.08-13.18c-0.96-3.45-2.29-6.81-3.57-10.17
			c-0.4-1.04-0.58-1.98-0.24-3.05c1.31-4.1,3.31-7.76,6.58-10.64c0.15-0.13,0.32-0.23,0.6-0.42c0.64,0.69,1.35,1.34,1.91,2.09
			c2.56,3.49,5.08,7.01,7.58,10.54c0.15,0.21,0.15,0.7,0.01,0.94c-4.27,7.33-7.37,15.13-9.54,23.31
			C659.9,417.7,659.81,417.87,659.71,418.1z"/>
		<path class="st2" d="M654.74,456.57c0.98,0.28,1.94,0.74,2.93,0.81c1.62,0.11,3.2,0.03,4.84,0.48c1.26,0.35,2.78-0.24,4.19-0.42
			c0.28-0.03,0.55-0.07,0.96-0.12c-0.91,0.87-1.72,1.63-2.51,2.4c-1.44,1.4-2.25,3.12-2.73,5.07c-1.72,7.02-2.87,14.13-3.16,21.35
			c-0.24,5.72-0.24,11.45-0.11,17.17c0.11,4.75,0.56,9.5,0.85,14.25c0.02,0.31-0.05,0.65-0.18,0.94c-0.88,1.91-1.78,3.81-2.62,5.6
			c-0.13-1.19-0.35-2.61-0.44-4.04c-0.33-5.18-0.72-10.35-0.89-15.53c-0.15-4.76-0.26-9.55,0.02-14.3
			c0.44-7.61,1.21-15.21,1.87-22.81c0.14-1.64,0.5-3.28,0.53-4.92C658.3,459.87,656.74,458.1,654.74,456.57z"/>
	</g>
</g>
<g>
	<path class="st4" d="M90.78,348.61v-76.43H68.36v-23.65h72.12v23.65h-22.42v76.43H90.78z"/>
	<path class="st4" d="M153.19,248.53h27.21v48.67c0,7.16,0.18,12.29,0.55,15.42c0.36,3.12,0.98,5.73,1.85,7.83
		c1.05,2.55,2.87,4.5,5.47,5.84c2.6,1.34,5.76,2.02,9.5,2.02c3.74,0,6.89-0.67,9.47-2.02c2.57-1.34,4.41-3.29,5.5-5.84
		c0.87-2.1,1.48-4.71,1.85-7.83c0.36-3.12,0.55-8.26,0.55-15.42v-6.84v-41.84h27.14v52.91c0,10.98-0.66,19.08-1.98,24.3
		c-1.32,5.22-3.55,9.67-6.7,13.36c-3.42,4.06-8.11,7.1-14.08,9.13c-5.97,2.03-13.22,3.04-21.74,3.04c-8.57,0-15.83-1.01-21.77-3.04
		s-10.65-5.07-14.12-9.13c-3.1-3.69-5.32-8.15-6.67-13.36c-1.34-5.22-2.02-13.32-2.02-24.3v-10.39V248.53z"/>
	<path class="st4" d="M262.98,348.61V248.53h28.51c11.17,0,18.95,0.51,23.34,1.54c4.4,1.03,8.19,2.75,11.38,5.16
		c3.6,2.73,6.37,6.22,8.31,10.46c1.94,4.24,2.91,8.91,2.91,14.01c0,7.75-1.9,14.05-5.71,18.9c-3.81,4.85-9.35,8.08-16.65,9.67
		l27.28,40.33h-30.83l-22.97-39.17v39.17H262.98z M288.54,295.84h5.06c5.88,0,10.17-1,12.89-3.01c2.71-2,4.07-5.15,4.07-9.43
		c0-5.01-1.26-8.58-3.79-10.7s-6.78-3.18-12.75-3.18h-5.47V295.84z"/>
	<path class="st4" d="M352.73,348.61V248.53h26.32l37.8,51.47c0.73,1.05,1.93,3.16,3.59,6.32c1.66,3.17,3.5,6.94,5.5,11.31
		c-0.55-4.15-0.95-7.84-1.2-11.07c-0.25-3.24-0.38-6.11-0.38-8.61v-49.42h26.18v100.08h-26.18l-37.8-51.68
		c-0.78-1.05-1.99-3.16-3.66-6.32c-1.66-3.17-3.48-6.89-5.43-11.18c0.55,4.19,0.95,7.91,1.2,11.14c0.25,3.24,0.38,6.11,0.38,8.61
		v49.42H352.73z"/>
	<path class="st4" d="M630.61,348.61h-25.5l-5.88-43.27c-0.41-3.05-0.79-6.45-1.13-10.19c-0.34-3.74-0.65-7.82-0.92-12.24
		c-0.64,4.24-1.89,9.53-3.76,15.86c-0.41,1.32-0.71,2.3-0.89,2.94l-13.6,46.89h-18.18l-13.6-46.89c-0.18-0.64-0.46-1.62-0.82-2.94
		c-1.91-6.33-3.17-11.6-3.76-15.79c-0.27,3.78-0.59,7.53-0.96,11.25c-0.37,3.71-0.8,7.42-1.3,11.11l-5.88,43.27h-25.36l15.45-100.08
		h27l15.11,51.61c0.09,0.37,0.27,0.96,0.55,1.78c1.41,4.6,2.3,8.54,2.67,11.83c0.18-1.78,0.52-3.75,1.03-5.91
		c0.5-2.16,1.18-4.77,2.05-7.83l15.24-51.47h27.07L630.61,348.61z"/>
	<path class="st4" d="M645.31,348.61V248.53h61.32v21.94H671.9v17.36h32.74v21.46H671.9v16.88h34.73v22.42H645.31z"/>
	<path class="st4" d="M77.04,516.61V416.53h27.55v100.08H77.04z"/>
	<path class="st4" d="M126.6,516.61V416.53h26.32l37.8,51.47c0.73,1.05,1.92,3.16,3.59,6.32c1.66,3.17,3.5,6.94,5.5,11.31
		c-0.55-4.15-0.95-7.84-1.2-11.07c-0.25-3.24-0.38-6.11-0.38-8.61v-49.42h26.18v100.08h-26.18l-37.8-51.68
		c-0.78-1.05-1.99-3.16-3.66-6.32c-1.66-3.17-3.48-6.89-5.43-11.18c0.55,4.19,0.95,7.91,1.2,11.14c0.25,3.24,0.38,6.11,0.38,8.61
		v49.42H126.6z"/>
	<path class="st4" d="M260.31,516.61v-76.43h-22.42v-23.65h72.12v23.65h-22.42v76.43H260.31z"/>
	<path class="st4" d="M423.62,466.78c0,7.2-1.32,13.95-3.96,20.23s-6.49,11.92-11.55,16.88c-5.1,4.92-10.94,8.72-17.5,11.38
		c-6.56,2.67-13.38,4-20.44,4c-7.16,0-14-1.33-20.54-4c-6.54-2.67-12.29-6.46-17.26-11.38c-5.15-4.97-9.06-10.62-11.72-16.95
		c-2.67-6.33-4-13.06-4-20.17c0-7.15,1.33-13.89,4-20.2c2.67-6.31,6.57-11.95,11.72-16.92c4.97-4.92,10.72-8.72,17.26-11.38
		c6.54-2.67,13.39-4,20.54-4c7.11,0,13.96,1.33,20.54,4c6.58,2.67,12.38,6.46,17.4,11.38s8.85,10.55,11.52,16.88
		C422.29,452.88,423.62,459.62,423.62,466.78z M370.16,496.17c7.56,0,13.82-2.78,18.76-8.34c4.94-5.56,7.42-12.58,7.42-21.05
		c0-8.38-2.51-15.38-7.52-20.99c-5.01-5.61-11.23-8.41-18.66-8.41c-7.57,0-13.82,2.79-18.76,8.37c-4.95,5.58-7.42,12.59-7.42,21.02
		c0,8.57,2.44,15.61,7.31,21.12C356.17,493.41,362.46,496.17,370.16,496.17z"/>
	<path class="st4" d="M472.77,516.61l34.52-100.08h34.18l34.59,100.08h-27.14l-5.06-17.91H505.1l-5.2,17.91H472.77z M510.98,479.22
		h27.14l-10.19-33.02c-0.32-1-0.75-2.62-1.3-4.85c-0.55-2.23-1.25-5.1-2.12-8.61c-0.59,2.46-1.17,4.81-1.74,7.04
		c-0.57,2.23-1.15,4.38-1.74,6.43L510.98,479.22z"/>
</g>
</svg>
